<svg width="360" height="760" viewBox="0 0 360 760" fill="none" xmlns="http://www.w3.org/2000/svg">
<g clip-path="url(#clip0_13_699)">
<rect width="360" height="760" rx="25" fill="#1D1E20"/>
<g filter="url(#filter0_f_13_699)">
<rect x="155" y="230" width="50" height="301" fill="url(#paint0_radial_13_699)"/>
</g>
<path d="M181.109 369H178.164L178 348.08L187 348L181.109 369Z" fill="#15974A"/>
<path d="M153.303 386C152.896 386 152 386 152 386C152 386 152 385.112 152 384.708V374.292C152 373.969 152 373 152 373C152 373 152.896 373 153.303 373H166.09C166.09 373.969 166.09 374.615 166.09 375.584H155.258C155.095 375.584 154.932 375.665 154.769 375.826C154.606 375.988 154.606 376.068 154.606 376.23V382.689C154.606 382.851 154.688 383.012 154.769 383.174C154.932 383.255 155.095 383.335 155.258 383.335H170C170 384.708 170 385.031 170 385.919H153.303V386Z" fill="white"/>
<path d="M191.538 387C191.538 387 191.538 385.5 191.538 385.083V375.667H186C186 374.25 186 373 186 373C186 373 186.308 373 186.692 373H198C198 374.25 198 374.5 198 375.667H193.923V385C193.923 385.417 193.923 386.917 193.923 386.917H191.538V387Z" fill="white"/>
<path d="M172.269 405C171.872 405 171 405 171 405C171 405 171 404.012 171 403.6V392.4C171 391.988 171 391 171 391C171 391 171.872 391 172.269 391H187.731C188.048 391 189 391 189 391C189 391 189 391.988 189 392.4V403.6C189 404.012 189 405 189 405C189 405 188.048 405 187.731 405H172.269ZM185.749 402.2C185.907 402.2 186.066 402.118 186.225 402.035C186.383 401.871 186.463 401.706 186.463 401.541V394.541C186.463 394.376 186.383 394.212 186.225 394.047C186.066 393.882 185.907 393.8 185.749 393.8H174.172C174.013 393.8 173.855 393.882 173.696 394.047C173.617 394.212 173.537 394.376 173.537 394.541V401.541C173.537 401.706 173.617 401.953 173.696 402.035C173.855 402.118 174.013 402.2 174.172 402.2H185.749Z" fill="#15974A"/>
<path d="M191 405C191 405 191 404.012 191 403.6V392.4C191 391.988 191 391 191 391C191 391 191.903 391 192.313 391C192.641 391 193.708 391 193.708 391C193.708 391 193.708 391.988 193.708 392.4H205.687C205.851 392.4 207 392.4 207 392.4C207 392.4 207 393.635 207 393.8V403.188C205.605 403.188 205.933 403.188 204.374 403.188V395.2H193.708V403.6C193.708 404.012 193.708 405 193.708 405H192.395H191Z" fill="#15974A"/>
<path d="M195.648 411.516H163.512C158.635 411.516 154.718 407.791 154.718 403.212V388H152V403.134C152 409.11 157.196 414 163.512 414H195.568C201.404 414 206.281 409.809 207 404.531H204.282C203.642 408.49 200.045 411.516 195.648 411.516Z" fill="#15974A"/>
<path d="M171 369C171.969 369 172.211 369 173.584 369V383.809C173.584 383.973 173.665 384.136 173.745 384.3C173.907 384.382 174.068 384.464 174.23 384.464H180.689C180.851 384.464 181.012 384.382 181.174 384.3C181.335 384.136 181.416 383.973 181.416 383.809V372.845C182.385 372.845 183.031 372.845 184 372.845V385.691C184 386.1 184 387 184 387C184 387 183.031 387 182.708 387H172.292C171.888 387 171 387 171 387C171 387 171 386.1 171 385.691V369Z" fill="white"/>
<path d="M175 361H174.454H173.363H163.227C157.38 361 152.624 365.365 152 371H154.651C155.197 366.873 158.783 363.619 163.149 363.619H173.908H174.298H174.844L175 361Z" fill="white"/>
<path d="M195.686 361H185.707L185 363.626H195.686C200.479 363.626 204.329 367.446 204.329 372.141V391H207V372.141C207 366.013 201.893 361 195.686 361Z" fill="white"/>
</g>
<defs>
<filter id="filter0_f_13_699" x="-45" y="30" width="450" height="701" filterUnits="userSpaceOnUse" color-interpolation-filters="sRGB">
<feFlood flood-opacity="0" result="BackgroundImageFix"/>
<feBlend mode="normal" in="SourceGraphic" in2="BackgroundImageFix" result="shape"/>
<feGaussianBlur stdDeviation="100" result="effect1_foregroundBlur_13_699"/>
</filter>
<radialGradient id="paint0_radial_13_699" cx="0" cy="0" r="1" gradientUnits="userSpaceOnUse" gradientTransform="translate(180 380.5) rotate(90) scale(294.5 51.2089)">
<stop stop-color="#00CC66"/>
<stop offset="1" stop-color="#00CC66"/>
</radialGradient>
<clipPath id="clip0_13_699">
<rect width="360" height="760" rx="25" fill="white"/>
</clipPath>
</defs>
</svg>
