<svg width="55" height="66" viewBox="0 0 55 66" fill="none" xmlns="http://www.w3.org/2000/svg">
<path d="M29.1091 21H26.1636L26 0.0798478L35 0L29.1091 21Z" fill="#15974A"/>
<path d="M1.30317 38C0.895927 38 0 38 0 38C0 38 0 37.1118 0 36.7081V26.2919C0 25.9689 0 25 0 25C0 25 0.895927 25 1.30317 25H14.0905C14.0905 25.9689 14.0905 26.6149 14.0905 27.5839H3.25792C3.09502 27.5839 2.93213 27.6646 2.76923 27.8261C2.60633 27.9876 2.60633 28.0683 2.60633 28.2298V34.6894C2.60633 34.8509 2.68778 35.0124 2.76923 35.1739C2.93213 35.2547 3.09502 35.3354 3.25792 35.3354H18C18 36.7081 18 37.0311 18 37.9193H1.30317V38Z" fill="white"/>
<path d="M39.5385 39C39.5385 39 39.5385 37.5 39.5385 37.0833V27.6667H34C34 26.25 34 25 34 25C34 25 34.3077 25 34.6923 25H46C46 26.25 46 26.5 46 27.6667H41.9231V37C41.9231 37.4167 41.9231 38.9167 41.9231 38.9167H39.5385V39Z" fill="white"/>
<path d="M20.2687 57C19.8722 57 19 57 19 57C19 57 19 56.0118 19 55.6V44.4C19 43.9882 19 43 19 43C19 43 19.8722 43 20.2687 43H35.7313C36.0485 43 37 43 37 43C37 43 37 43.9882 37 44.4V55.6C37 56.0118 37 57 37 57C37 57 36.0485 57 35.7313 57H20.2687ZM33.7489 54.2C33.9075 54.2 34.0661 54.1176 34.2247 54.0353C34.3833 53.8706 34.4626 53.7059 34.4626 53.5412V46.5412C34.4626 46.3765 34.3833 46.2118 34.2247 46.0471C34.0661 45.8824 33.9075 45.8 33.7489 45.8H22.1718C22.0132 45.8 21.8546 45.8824 21.696 46.0471C21.6167 46.2118 21.5374 46.3765 21.5374 46.5412V53.5412C21.5374 53.7059 21.6167 53.9529 21.696 54.0353C21.8546 54.1176 22.0132 54.2 22.1718 54.2H33.7489Z" fill="#15974A"/>
<path d="M39 57C39 57 39 56.0118 39 55.6V44.4C39 43.9882 39 43 39 43C39 43 39.9026 43 40.3128 43C40.641 43 41.7077 43 41.7077 43C41.7077 43 41.7077 43.9882 41.7077 44.4H53.6872C53.8513 44.4 55 44.4 55 44.4C55 44.4 55 45.6353 55 45.8V55.1882C53.6051 55.1882 53.9333 55.1882 52.3744 55.1882V47.2H41.7077V55.6C41.7077 56.0118 41.7077 57 41.7077 57H40.3949H39Z" fill="#15974A"/>
<path d="M43.6483 63.5164H11.5116C6.63518 63.5164 2.71802 59.791 2.71802 55.2119V40H0V55.1343C0 61.1104 5.19622 66 11.5116 66H43.5683C49.4041 66 54.2805 61.809 55 56.5313H52.282C51.6424 60.4895 48.0451 63.5164 43.6483 63.5164Z" fill="#15974A"/>
<path d="M19 21C19.9689 21 20.2112 21 21.5839 21V35.8091C21.5839 35.9727 21.6646 36.1364 21.7453 36.3C21.9068 36.3818 22.0683 36.4636 22.2298 36.4636H28.6894C28.8509 36.4636 29.0124 36.3818 29.1739 36.3C29.3354 36.1364 29.4161 35.9727 29.4161 35.8091V24.8455C30.3851 24.8455 31.0311 24.8455 32 24.8455V37.6909C32 38.1 32 39 32 39C32 39 31.0311 39 30.7081 39H20.2919C19.8882 39 19 39 19 39C19 39 19 38.1 19 37.6909V21V21Z" fill="white"/>
<path d="M23 13H22.4542H21.3627H11.2271C5.37966 13 0.623729 17.3651 0 23H2.65085C3.19661 18.873 6.78305 15.619 11.1492 15.619H21.9085H22.2983H22.8441L23 13Z" fill="white"/>
<path d="M43.6857 13H33.7071L33 15.626H43.6857C48.4786 15.626 52.3286 19.4456 52.3286 24.1406V43H55V24.1406C55 18.0133 49.8929 13 43.6857 13Z" fill="white"/>
</svg>
