<svg width="28" height="28" viewBox="0 0 28 28" fill="none" xmlns="http://www.w3.org/2000/svg">
<rect x="0.5" y="0.5" width="27" height="27" rx="7.5" stroke="white"/>
<path fill-rule="evenodd" clip-rule="evenodd" d="M8.92435 8.02951C8.52648 8.12731 8.18299 8.47535 8.09129 8.87358C8.02544 9.15964 8.07483 9.49239 8.21965 9.7381C8.25103 9.79133 9.20069 10.7687 10.33 11.91L12.3834 13.9852L10.3006 16.0966C8.05827 18.3698 8.12068 18.2999 8.03414 18.6359C7.96444 18.9066 8.00187 19.1895 8.14279 19.457C8.36468 19.878 8.88333 20.0823 9.43191 19.9646C9.75879 19.8946 9.67366 19.9719 11.9033 17.7195C13.0385 16.5727 13.9776 15.6344 13.9902 15.6344C14.0029 15.6344 14.9421 16.5724 16.0773 17.719C17.9915 19.6521 18.1525 19.8088 18.2939 19.8755C18.7788 20.1042 19.366 20.011 19.7016 19.6521C20.017 19.3147 20.0901 18.7988 19.8839 18.3637C19.8157 18.2197 19.6521 18.0489 17.7094 16.0928L15.6086 13.9777L17.652 11.9063C18.9249 10.616 19.718 9.79462 19.7551 9.72814C19.8589 9.54208 19.8951 9.36852 19.8832 9.1141C19.8705 8.84121 19.8141 8.67543 19.6664 8.47675C19.3781 8.08886 18.8548 7.92569 18.3994 8.08167C18.1399 8.17055 18.0213 8.28163 15.9851 10.3424L13.9929 12.3586L11.9395 10.2902C9.73487 8.06967 9.7886 8.11868 9.46303 8.03291C9.30128 7.99031 9.08931 7.98895 8.92435 8.02951Z" fill="white"/>
</svg>
