<svg width="20" height="20" viewBox="0 0 20 20" fill="none" xmlns="http://www.w3.org/2000/svg">
<path fill-rule="evenodd" clip-rule="evenodd" d="M5.09887 0.00877282C4.62582 0.0372884 3.87789 0.110609 3.50426 0.16514C1.76449 0.419046 0.484062 1.01498 0.130313 1.73537L0.0207422 1.9585L0.0103906 6.7308L0 11.5031L0.0844531 11.7308C0.149961 11.9076 0.232539 12.0215 0.453438 12.2398C0.689297 12.473 0.813711 12.558 1.18016 12.7364C1.8509 13.0628 2.52184 13.2594 3.52223 13.4226C3.78352 13.4653 4.00215 13.505 4.00805 13.5109C4.01395 13.5168 3.8841 13.5918 3.71949 13.6776C3.31391 13.8889 2.93254 14.2671 2.81898 14.5705C2.73898 14.7843 2.73559 14.8565 2.73559 16.3336C2.73559 17.6448 2.74492 17.9015 2.79836 18.0606C3.01434 18.7035 3.83332 19.2263 5.17063 19.5749C6.26379 19.8599 7.1598 19.9594 8.63402 19.9594C9.75566 19.9594 10.3636 19.9146 11.2512 19.7666C12.6404 19.5349 13.8587 19.0029 14.2652 18.4503C14.5018 18.1286 14.5113 18.0832 14.5325 17.1733L14.552 16.3335L15.0403 16.3064C17.5184 16.1686 19.4213 15.4826 19.8721 14.5644L19.9817 14.3413V9.96631V5.59131L19.8712 5.36631C19.472 4.55327 17.9815 3.95733 15.7304 3.71061C14.7482 3.60295 12.9982 3.62639 12.0217 3.76022L11.8457 3.78436L11.8301 2.89096C11.813 1.90584 11.7918 1.80756 11.5238 1.4692C10.9944 0.800726 9.55191 0.282679 7.66781 0.0843978C7.10758 0.0254134 5.57258 -0.0197428 5.09887 0.00877282ZM6.79809 0.923695C8.64797 1.03475 10.1598 1.44526 10.7336 1.99229C10.9966 2.24299 10.9474 2.42491 10.5472 2.6817C9.93879 3.07217 8.78766 3.39912 7.50121 3.5469C6.84168 3.62264 4.85199 3.61225 4.20043 3.52967C2.47332 3.31073 1.06617 2.7869 0.923867 2.30994C0.864141 2.10983 1.21766 1.81073 1.80906 1.56108C3.01574 1.05162 4.90629 0.810101 6.79809 0.923695ZM1.25809 3.69827C1.91195 4.01545 2.92211 4.2776 4.06371 4.42635C4.73066 4.51327 6.93965 4.52604 7.57934 4.44666C9.06359 4.26252 9.9084 4.03205 10.8724 3.54838C10.8897 3.53971 10.8985 3.63448 10.892 3.75893L10.8801 3.98518L10.6653 4.03791C9.87492 4.23194 9.12399 4.56717 8.72035 4.90619C8.38695 5.18619 8.22547 5.47948 8.18547 5.8776C8.16461 6.08541 8.14145 6.15975 8.09309 6.17428C8.05758 6.18494 7.77367 6.22424 7.46215 6.26159C6.77574 6.34389 5.09301 6.35526 4.41527 6.28217C2.67617 6.09463 1.21234 5.5944 0.956836 5.10034C0.912656 5.01487 0.899648 4.82491 0.899648 4.26514C0.899648 3.86659 0.907148 3.54053 0.916289 3.54053C0.92543 3.54053 1.07922 3.61151 1.25809 3.69827ZM15.5286 4.59998C16.0758 4.64612 16.8964 4.79006 17.422 4.93209C18.4133 5.19998 19.1644 5.65659 19.0795 5.93971C18.9871 6.24787 18.314 6.6176 17.4062 6.85889C16.4551 7.11166 15.7291 7.20651 14.4934 7.23928C12.7947 7.2844 11.2414 7.07737 10.1536 6.66084C9.53074 6.42241 9.10277 6.11659 9.10277 5.90998C9.10277 5.60901 9.80047 5.19741 10.7629 4.93049C12.0579 4.57143 13.7759 4.45229 15.5286 4.59998ZM1.2623 6.43162C1.95992 6.75854 2.9875 7.02057 4.1223 7.16092C4.88762 7.25557 6.83566 7.25608 7.57328 7.16182C7.86 7.12518 8.11047 7.09522 8.12992 7.09522C8.1502 7.09522 8.16527 7.57584 8.16527 8.22209V9.34901L7.84301 9.39346C6.80316 9.53686 5.02621 9.55166 4.08324 9.42475C2.78953 9.25065 1.73875 8.92639 1.18484 8.53026C0.910352 8.33397 0.899648 8.28467 0.899648 7.21627C0.899648 6.6985 0.906016 6.27491 0.913789 6.27491C0.921523 6.27491 1.0784 6.34541 1.2623 6.43162ZM10.1239 7.60534C10.6804 7.79186 11.4505 7.95889 12.2189 8.05971C12.8939 8.1483 15.225 8.16037 15.8215 8.07838C17.2211 7.886 17.9665 7.69702 18.7076 7.34662C18.9092 7.25131 19.0816 7.17334 19.0907 7.17334C19.0999 7.17334 19.1019 7.5269 19.0953 7.95905L19.0832 8.74475L18.9043 8.90631C17.8816 9.82959 14.3693 10.2576 11.6809 9.78666C10.7566 9.62471 10.0428 9.39256 9.52516 9.08553C9.1018 8.8344 9.10277 8.83709 9.10277 7.9383V7.17237L9.37199 7.30795C9.52004 7.38248 9.85844 7.51631 10.1239 7.60534ZM1.15355 9.56131C1.89043 9.9476 3.14551 10.2511 4.53246 10.3783C5.50184 10.4673 7.54359 10.4065 8.07738 10.2728L8.16527 10.2508V11.3836V12.5164L8.07738 12.5381C8.02902 12.5499 7.73461 12.5905 7.42309 12.6282C6.74379 12.7103 5.14137 12.7217 4.45434 12.6491C3.09039 12.5052 1.91203 12.1815 1.29137 11.7803C0.89832 11.5263 0.899961 11.5322 0.899805 10.4025C0.899727 9.86897 0.912813 9.43842 0.928945 9.44569C0.945078 9.45299 1.04613 9.50502 1.15355 9.56131ZM9.32051 10.005C9.86234 10.3226 11.0581 10.6406 12.2864 10.794C12.9768 10.8801 15.1102 10.8924 15.7434 10.8139C17.083 10.6476 18.1204 10.3828 18.8251 10.027C18.9551 9.96139 19.0708 9.90772 19.0821 9.90772C19.0935 9.90772 19.1027 10.2373 19.1026 10.6401C19.1025 11.5007 19.0907 11.535 18.7111 11.7803C18.0905 12.1814 16.9138 12.5047 15.5481 12.6493C14.9678 12.7107 13.1969 12.7106 12.6184 12.6491C11.0539 12.4827 9.69668 12.0615 9.23391 11.5988L9.10277 11.4676V10.6877C9.10277 10.2587 9.11441 9.90772 9.12863 9.90772C9.14285 9.90772 9.22922 9.95151 9.32051 10.005ZM9.25902 12.7007L9.35668 12.7565L9.22973 12.7579C9.14231 12.7589 9.10277 12.741 9.10277 12.7007C9.10277 12.6288 9.1332 12.6288 9.25902 12.7007ZM19.1028 13.3667C19.1028 14.1724 19.088 14.2344 18.8528 14.4138C18.208 14.9056 16.6451 15.3076 15.0352 15.3958L14.5418 15.4229L14.5251 15.0383C14.512 14.7394 14.4889 14.6165 14.421 14.486C14.2936 14.2411 14.0909 14.0331 13.7711 13.8192L13.4884 13.6302L14.4304 13.6066C15.6138 13.577 16.3524 13.4924 17.2668 13.2818C17.9028 13.1353 18.6529 12.8754 18.8879 12.7201C19.1027 12.5781 19.1028 12.5785 19.1028 13.3667ZM10.3137 13.7132C11.5146 13.8576 12.526 14.1316 13.1429 14.4798C13.3875 14.6179 13.634 14.8719 13.634 14.9858C13.634 15.0998 13.3875 15.3538 13.1429 15.4919C12.5114 15.8483 11.4106 16.1388 10.1575 16.2799C9.57949 16.3449 7.69734 16.3463 7.13012 16.2821C5.49461 16.0969 4.1707 15.6725 3.75617 15.2004C3.60277 15.0257 3.60277 14.946 3.75617 14.7713C4.23809 14.2224 5.75008 13.7954 7.75512 13.6419C8.1673 13.6103 9.84777 13.6572 10.3137 13.7132ZM3.89883 16.3872C4.62836 16.7539 5.66605 17.0172 7.03246 17.1823C7.58863 17.2495 9.6902 17.2478 10.2551 17.1797C11.5643 17.0219 12.6296 16.7611 13.2519 16.4463C13.3532 16.395 13.4806 16.353 13.5351 16.353H13.634V17.0756V17.7981L13.4961 17.9507C13.3581 18.1035 12.9436 18.3391 12.5403 18.494C11.9819 18.7084 10.9778 18.9219 10.0989 19.013C9.50023 19.075 7.77137 19.076 7.19563 19.0146C6.38988 18.9287 5.47574 18.7469 4.89133 18.5564C4.51527 18.4337 3.91555 18.1097 3.77352 17.9525L3.63402 17.7981V17.0365C3.63402 16.6176 3.64332 16.2749 3.65469 16.2749C3.66602 16.2749 3.7759 16.3255 3.89883 16.3872Z" fill="#999999"/>
</svg>
