<svg width="21" height="21" viewBox="0 0 21 21" fill="none" xmlns="http://www.w3.org/2000/svg">
<path fill-rule="evenodd" clip-rule="evenodd" d="M9.93571 0.221846C7.87258 0.435601 5.88649 1.56333 4.6227 3.23861C3.66495 4.50821 3.15205 5.96973 3.09146 7.60169L3.06833 8.22511L2.90792 8.21253C2.68009 8.19464 2.20098 8.30319 1.951 8.42932C1.17518 8.82083 0.73584 9.86696 0.73584 11.3227C0.73584 12.8494 1.18647 13.8644 2.04468 14.2709C2.30353 14.3935 2.39084 14.4145 2.71107 14.4312L3.07958 14.4505V14.7194C3.07958 15.0641 3.17486 15.2644 3.3911 15.3744C3.53642 15.4484 3.61948 15.4529 4.83756 15.4529C6.05565 15.4529 6.1387 15.4484 6.28403 15.3744C6.3833 15.3239 6.46627 15.2412 6.5169 15.1422C6.59406 14.9913 6.59554 14.9197 6.59554 11.3422C6.59554 7.76475 6.59406 7.6931 6.5169 7.54223C6.46627 7.44323 6.3833 7.36047 6.28403 7.30997C6.14238 7.23789 6.05483 7.23154 5.20521 7.23154H4.28056L4.30708 6.98801C4.39842 6.15029 4.79053 5.08428 5.28827 4.3204C6.36076 2.67442 8.08534 1.61363 10.0545 1.38865C11.5812 1.21421 13.192 1.63541 14.4869 2.54771C14.9599 2.88089 15.6805 3.59864 16.0207 4.07547C16.609 4.89987 17.0522 6.03414 17.1671 7.0096L17.1932 7.23154H16.2683C15.4183 7.23154 15.3308 7.23789 15.1891 7.30997C15.0898 7.36047 15.0069 7.44323 14.9562 7.54223C14.8791 7.6931 14.8776 7.76475 14.8776 11.3422C14.8776 14.9197 14.8791 14.9913 14.9562 15.1422C15.0069 15.2412 15.0898 15.3239 15.1891 15.3744C15.331 15.4466 15.4183 15.4529 16.2824 15.4529H17.2216V15.8211C17.2216 16.2714 17.1692 16.5318 17.0183 16.8313C16.7905 17.2833 16.3205 17.6436 15.823 17.7475C15.7018 17.7728 15.1916 17.7907 14.5919 17.7907H13.5678L13.4719 17.5861C13.3534 17.3335 12.9693 16.9452 12.7158 16.8218C12.3654 16.6512 12.1708 16.6227 11.3538 16.6223C10.5264 16.6218 10.2921 16.6533 9.95524 16.8104C9.67318 16.9419 9.29565 17.3187 9.16181 17.6022C8.67336 18.6369 9.26592 19.8472 10.3771 20.0843C10.6779 20.1486 12.0723 20.1412 12.3252 20.074C12.8162 19.9436 13.2215 19.6299 13.4376 19.213L13.5689 18.9599L14.6546 18.9598C15.8348 18.9596 16.1275 18.9257 16.5769 18.7372C17.2567 18.4521 17.8385 17.885 18.1429 17.2108C18.3452 16.7628 18.3639 16.6292 18.383 15.5016L18.4009 14.4398L18.661 14.4394C19.9605 14.4371 20.7373 13.271 20.7373 11.3227C20.7373 9.87039 20.2879 8.79932 19.5217 8.42542C19.2686 8.30191 18.7883 8.19499 18.5652 8.21253L18.4048 8.22511L18.3817 7.60169C18.3545 6.86929 18.2562 6.25768 18.0641 5.62584C16.9988 2.12137 13.5746 -0.155128 9.93571 0.221846ZM5.42356 11.3422V14.284H4.83756H4.25157V11.3422V8.40045H4.83756H5.42356V11.3422ZM17.2216 11.3422V14.284H16.6356H16.0496V11.3422V8.40045H16.6356H17.2216V11.3422ZM3.01778 9.39819C3.07298 9.41931 3.07958 9.62741 3.07958 11.3464V13.2709L2.85495 13.2708C2.40913 13.2705 2.15754 12.9896 2.00018 12.3163C1.90119 11.8927 1.89986 10.7311 1.99795 10.3362C2.1625 9.67394 2.41127 9.38806 2.83221 9.37762C2.90031 9.37594 2.98379 9.38518 3.01778 9.39819ZM18.8663 9.41873C19.1555 9.51497 19.3403 9.7934 19.4752 10.3362C19.5602 10.6784 19.5708 11.8877 19.4919 12.2384C19.3741 12.762 19.1915 13.083 18.9366 13.2145C18.8764 13.2455 18.7296 13.2709 18.6104 13.2709H18.3936V11.3454C18.3936 9.84156 18.4043 9.41569 18.4424 9.40033C18.5303 9.36495 18.7309 9.37368 18.8663 9.41873ZM12.183 17.8691C12.3564 17.9574 12.4945 18.1818 12.4945 18.3752C12.4945 18.5685 12.3564 18.793 12.183 18.8812C12.0454 18.9512 11.9534 18.9596 11.3226 18.9596C10.6918 18.9596 10.5998 18.9512 10.4621 18.8812C10.0638 18.6785 10.0555 18.1197 10.4472 17.8832C10.5929 17.7953 10.6323 17.7911 11.3144 17.7909C11.9536 17.7907 12.0451 17.799 12.183 17.8691Z" fill="#999999"/>
</svg>
