<svg width="20" height="21" viewBox="0 0 20 21" fill="none" xmlns="http://www.w3.org/2000/svg">
<path fill-rule="evenodd" clip-rule="evenodd" d="M9.71014 0.297556C9.63656 0.33095 7.43552 2.50199 4.81891 5.12209C-0.354321 10.3022 -0.0468944 9.96419 0.0321251 10.3853C0.0732848 10.6047 0.340043 10.8714 0.559531 10.9126C0.980136 10.9915 0.669097 11.2728 5.52951 6.41687L10 1.95048L14.4705 6.41687C19.3309 11.2728 19.0199 10.9915 19.4405 10.9126C19.66 10.8714 19.9267 10.6047 19.9679 10.3853C20.0469 9.96419 20.3543 10.3022 15.1811 5.12205C12.3951 2.33221 10.3642 0.332288 10.2801 0.295773C10.101 0.217839 9.88428 0.218508 9.71014 0.297556ZM2.57297 11.7072C2.39272 11.789 2.20605 12.0164 2.17314 12.1944C2.15852 12.2734 2.15383 13.4515 2.16275 14.8125C2.18095 17.5943 2.16851 17.4788 2.53078 18.2232C2.87857 18.9378 3.44691 19.4994 4.17708 19.85C4.92273 20.2081 4.52023 20.1849 10 20.1849C15.5113 20.1849 15.082 20.2112 15.8662 19.8262C16.7848 19.3752 17.4539 18.5579 17.7441 17.5321C17.8195 17.266 17.8261 17.0325 17.8261 14.6709C17.8261 12.1433 17.8246 12.0973 17.7342 11.9763C17.5595 11.7423 17.417 11.6693 17.1349 11.6693C16.853 11.6693 16.7105 11.7423 16.5357 11.9762C16.446 12.0962 16.4432 12.1616 16.4215 14.6039C16.3999 17.0285 16.3961 17.1167 16.3035 17.3613C16.0762 17.9617 15.6024 18.4353 15.002 18.6626C14.7503 18.7578 14.7286 18.7583 10.1561 18.7716C6.86669 18.7813 5.48701 18.7707 5.2954 18.7345C4.98757 18.6763 4.58101 18.4833 4.33129 18.2768C4.0998 18.0853 3.81539 17.6756 3.69726 17.3634C3.6037 17.1161 3.60018 17.0348 3.57855 14.6039C3.55679 12.1616 3.55398 12.0962 3.4643 11.9762C3.41373 11.9085 3.31991 11.814 3.25583 11.7661C3.10822 11.6559 2.75348 11.6254 2.57297 11.7072Z" fill="#00CC66"/>
</svg>
