<svg width="20" height="21" viewBox="0 0 20 21" fill="none" xmlns="http://www.w3.org/2000/svg">
<path fill-rule="evenodd" clip-rule="evenodd" d="M8.91035 0.243886C8.59926 0.327515 8.3284 0.486492 8.0807 0.730856C7.71266 1.09393 7.53906 1.53211 7.53906 2.09794V2.43719L7.19727 2.56562C7.0093 2.63624 6.72469 2.75338 6.56481 2.82588L6.27418 2.95771L6.05699 2.7453C5.51258 2.21274 4.86676 2.02146 4.1998 2.19517C3.80117 2.29899 3.57344 2.46246 2.92699 3.10891C2.28051 3.75533 2.11703 3.98305 2.0132 4.38167C1.83965 5.04801 2.03082 5.69442 2.56219 6.2376L2.77344 6.45357L2.60266 6.84304C2.50875 7.05725 2.39215 7.34239 2.34355 7.47665L2.25516 7.72078H1.91594C1.3502 7.72078 0.915078 7.89319 0.54375 8.2645C0.0890234 8.71921 0 9.03306 0 10.1816C0 11.3326 0.0853125 11.631 0.548828 12.1008C0.911914 12.4688 1.35012 12.6424 1.91598 12.6424H2.25523L2.38367 12.9842C2.4543 13.1722 2.57145 13.4568 2.64395 13.6166L2.77578 13.9073L2.56336 14.1244C2.44652 14.2438 2.29594 14.4295 2.22875 14.5369C1.87695 15.0992 1.8641 15.8424 2.19605 16.4292C2.36117 16.721 3.46031 17.8201 3.75215 17.9852C4.30699 18.2991 4.99898 18.3056 5.56234 18.0022C5.67074 17.9439 5.87633 17.7863 6.01922 17.652L6.27902 17.4078L6.66488 17.577C6.87715 17.6701 7.16066 17.7865 7.29492 17.8357L7.53906 17.9252V18.2648C7.53906 18.8311 7.71258 19.2692 8.0807 19.6323C8.55051 20.0958 8.84895 20.1812 10 20.1812C11.1486 20.1812 11.4625 20.0921 11.9172 19.6374C12.2886 19.266 12.4609 18.8311 12.4609 18.2648V17.9252L12.7051 17.8357C12.8394 17.7865 13.1229 17.6701 13.3351 17.577L13.721 17.4078L13.9808 17.652C14.1237 17.7863 14.3293 17.9439 14.4377 18.0022C14.9884 18.2988 15.6729 18.2989 16.2275 18.0024C16.4895 17.8624 17.6314 16.7223 17.8011 16.4313C18.1176 15.8886 18.1253 15.1842 17.821 14.6191C17.7626 14.5107 17.605 14.3051 17.4707 14.1622L17.2266 13.9024L17.3957 13.5166C17.4888 13.3043 17.6052 13.0208 17.6544 12.8866L17.7439 12.6424L18.0809 12.642C18.6596 12.6412 19.083 12.4739 19.4512 12.1008C19.9147 11.631 20 11.3326 20 10.1816C20 9.0306 19.9147 8.73218 19.4512 8.26239C19.083 7.88928 18.6596 7.72202 18.0809 7.72124L17.7439 7.72078L17.6544 7.47665C17.6052 7.34239 17.4888 7.05889 17.3957 6.84664L17.2266 6.46079L17.4707 6.201C17.605 6.05812 17.7626 5.85254 17.821 5.74415C18.1242 5.18105 18.1179 4.48971 17.8043 3.93403C17.6415 3.64557 16.4995 2.50617 16.2275 2.36078C15.6401 2.04681 14.9059 2.06638 14.3555 2.4107C14.248 2.47789 14.0624 2.62847 13.943 2.7453L13.7258 2.95771L13.4352 2.82588C13.2753 2.75338 12.9907 2.63624 12.8027 2.56562L12.4609 2.43719V2.09794C12.4609 1.53215 12.2886 1.09713 11.9172 0.725778C11.6717 0.48032 11.4061 0.328726 11.0667 0.240331C10.7567 0.159593 9.21434 0.162132 8.91035 0.243886ZM10.9257 1.43575C11.0385 1.49035 11.1272 1.57285 11.192 1.68331C11.283 1.83866 11.2891 1.8835 11.2891 2.40141C11.2891 3.01653 11.3377 3.2159 11.5181 3.33933C11.5748 3.37812 11.8496 3.4846 12.1289 3.576C12.4082 3.66736 12.8828 3.86396 13.1836 4.0129C13.4844 4.1618 13.7706 4.28359 13.8196 4.28355C14.0066 4.28331 14.2054 4.15207 14.5864 3.77752C14.9923 3.37855 15.1057 3.30691 15.332 3.30691C15.5682 3.30691 15.6762 3.38164 16.2247 3.92403C16.7781 4.47131 16.875 4.60869 16.875 4.84602C16.875 5.0764 16.8049 5.188 16.4044 5.5954C16.0278 5.97843 15.8984 6.17526 15.8984 6.36545C15.8984 6.41626 16.0209 6.70488 16.1706 7.00682C16.3202 7.30876 16.5168 7.78187 16.6074 8.05818C16.698 8.3345 16.8038 8.60691 16.8426 8.66355C16.966 8.84393 17.1654 8.8926 17.7805 8.8926C18.2985 8.8926 18.3433 8.89865 18.4987 8.9897C18.7915 9.1613 18.8281 9.29375 18.8281 10.1816C18.8281 11.0695 18.7915 11.2019 18.4987 11.3735C18.3433 11.4646 18.2985 11.4706 17.7805 11.4706C17.1654 11.4706 16.966 11.5193 16.8426 11.6997C16.8038 11.7563 16.698 12.0287 16.6074 12.305C16.5168 12.5813 16.3202 13.0544 16.1706 13.3564C16.0209 13.6583 15.8984 13.9469 15.8984 13.9978C15.8984 14.1879 16.0278 14.3848 16.4044 14.7678C16.8034 15.1736 16.875 15.2871 16.875 15.5134C16.875 15.7476 16.8005 15.855 16.2603 16.4002C15.7073 16.9583 15.5695 17.0563 15.3384 17.0563C15.1052 17.0563 14.9948 16.9872 14.5864 16.5857C14.2014 16.2072 14.0066 16.0798 13.8129 16.0798C13.7602 16.0798 13.474 16.2016 13.1769 16.3505C12.8798 16.4993 12.4082 16.6959 12.1289 16.7872C11.8496 16.8786 11.5748 16.9851 11.5181 17.0239C11.3377 17.1473 11.2891 17.3467 11.2891 17.9618C11.2891 18.4797 11.283 18.5245 11.192 18.6799C11.0204 18.9727 10.8879 19.0093 10 19.0093C9.11211 19.0093 8.97965 18.9727 8.80805 18.6799C8.71699 18.5245 8.71094 18.4797 8.71094 17.9618C8.71094 17.3467 8.66223 17.1473 8.48188 17.024C8.42523 16.9852 8.15039 16.878 7.87109 16.7857C7.5918 16.6934 7.11867 16.4968 6.81969 16.3488C6.5207 16.2008 6.23449 16.0798 6.18367 16.0798C5.99348 16.0798 5.79664 16.2091 5.41359 16.5857C5.00617 16.9862 4.89457 17.0563 4.66418 17.0563C4.42684 17.0563 4.28945 16.9594 3.74215 16.406C3.19973 15.8576 3.125 15.7495 3.125 15.5134C3.125 15.2871 3.19664 15.1736 3.59562 14.7678C3.97223 14.3848 4.10156 14.1879 4.10156 13.9978C4.10156 13.9469 3.9791 13.6583 3.82941 13.3564C3.67977 13.0544 3.4832 12.5813 3.39262 12.305C3.30203 12.0287 3.19621 11.7563 3.15742 11.6997C3.03398 11.5193 2.83461 11.4706 2.21945 11.4706C1.70152 11.4706 1.65668 11.4646 1.50133 11.3735C1.20848 11.2019 1.17188 11.0695 1.17188 10.1816C1.17188 9.29375 1.20848 9.1613 1.50133 8.9897C1.65668 8.89865 1.70152 8.8926 2.21945 8.8926C2.83461 8.8926 3.03398 8.84393 3.15742 8.66355C3.19621 8.60691 3.30277 8.33208 3.39422 8.05279C3.48566 7.77351 3.68223 7.30036 3.83102 7.00139C3.9798 6.70238 4.10156 6.41619 4.10156 6.36537C4.10156 6.17526 3.97219 5.97839 3.59562 5.5954C3.19508 5.188 3.125 5.0764 3.125 4.84602C3.125 4.60869 3.22191 4.47131 3.77527 3.92403C4.32375 3.38164 4.43184 3.30691 4.66797 3.30691C4.89426 3.30691 5.00773 3.37855 5.41359 3.77752C5.79664 4.1541 5.99348 4.28343 6.18367 4.28343C6.23449 4.28343 6.52312 4.16097 6.82508 4.01129C7.12703 3.86165 7.60016 3.6651 7.87648 3.57452C8.15281 3.48394 8.42523 3.37812 8.48188 3.33933C8.66227 3.2159 8.71094 3.01653 8.71094 2.40141C8.71094 1.88424 8.71711 1.83846 8.80754 1.68417C8.87059 1.5766 8.96223 1.49059 9.07121 1.43664C9.22402 1.36098 9.30297 1.35395 9.99742 1.35391C10.6884 1.35387 10.7718 1.36122 10.9257 1.43575ZM9.12109 5.92301C7.49438 6.2751 6.22387 7.47926 5.79039 9.07985C5.69688 9.42507 5.6877 9.52359 5.6877 10.1816C5.6877 10.8396 5.69688 10.9381 5.79039 11.2833C6.19957 12.7942 7.3873 13.9819 8.8982 14.391C9.24344 14.4845 9.34195 14.4937 10 14.4937C10.658 14.4937 10.7566 14.4845 11.1018 14.391C12.6139 13.9815 13.8001 12.7954 14.2096 11.2833C14.3031 10.9381 14.3123 10.8396 14.3123 10.1816C14.3123 9.52359 14.3031 9.42507 14.2096 9.07985C13.8001 7.56774 12.6055 6.37119 11.1124 5.97746C10.5718 5.83492 9.6452 5.80957 9.12109 5.92301ZM10.7315 7.09526C12.1764 7.44165 13.1635 8.69436 13.1635 10.1816C13.1635 11.9544 11.7729 13.345 10 13.345C9.12664 13.345 8.37726 13.0366 7.7575 12.422C6.69973 11.3732 6.52484 9.69799 7.34281 8.44969C7.79258 7.76331 8.53043 7.24959 9.3134 7.07764C9.6841 6.99624 10.3531 7.00456 10.7315 7.09526Z" fill="#999999"/>
</svg>
