<svg width="15" height="21" viewBox="0 0 15 21" fill="none" xmlns="http://www.w3.org/2000/svg">
<path fill-rule="evenodd" clip-rule="evenodd" d="M4.41582 1.4319C4.5605 0.876402 4.99069 0.440083 5.53915 0.292609C5.80953 0.219895 13.2861 0.218402 13.5649 0.290987C14.1245 0.436773 14.5556 0.869231 14.7021 1.4319C14.7753 1.71286 14.7753 15.3828 14.7021 15.6638C14.5556 16.2264 14.1245 16.6589 13.5649 16.8047C13.4132 16.8442 12.9671 16.853 10.3587 16.8542C10.3458 18.3123 10.3261 19.3191 10.2995 19.3935C10.1971 19.6806 9.98649 19.9305 9.70993 20.0931L9.4651 20.237H5.18205H0.898999L0.650219 20.0908C0.367382 19.9245 0.118653 19.6117 0.0415065 19.3253C0.00703442 19.1972 -0.00625601 16.6334 0.00272541 11.8444L0.0164312 4.55846L0.160342 4.31363C0.323669 4.03582 0.555524 3.84047 0.851808 3.73098C1.00808 3.67324 1.58719 3.65978 4.37514 3.66419C4.38428 2.37713 4.39785 1.50089 4.41582 1.4319ZM4.36941 4.6364C1.24302 4.63716 1.17515 4.64572 1.0807 4.74017C0.977859 4.84301 0.976873 4.9132 0.976873 11.9565C0.976873 18.9997 0.977859 19.0699 1.0807 19.1727C1.18277 19.2748 1.25374 19.2766 5.20505 19.2766H9.22561L9.30639 19.1612C9.35263 19.0952 9.3728 18.7556 9.38132 16.8543C6.2192 16.8541 5.71613 16.8471 5.5531 16.8047C4.99345 16.6589 4.56238 16.2264 4.41582 15.6638C4.36482 15.468 4.34936 8.77445 4.36941 4.6364ZM9.38461 15.7998C5.74695 15.7998 5.73329 15.7986 5.64535 15.7329C5.59606 15.6961 5.52565 15.6257 5.48885 15.5764L5.42195 15.4868L5.4127 8.63469C5.4107 7.15422 5.41013 5.77223 5.41081 4.63634C9.11318 4.63645 9.1834 4.64017 9.28339 4.74017C9.38624 4.84301 9.38722 4.9132 9.38722 11.9449C9.38722 13.5669 9.38666 14.8246 9.38461 15.7998ZM10.3663 15.7998C10.3922 11.46 10.3699 4.71663 10.2995 4.51942C10.1971 4.23227 9.98649 3.9824 9.70993 3.8198L9.4651 3.67589L5.41178 3.66633C5.41353 2.46247 5.4171 1.70604 5.42211 1.67805C5.44531 1.54796 5.58175 1.38216 5.71235 1.32528C5.78231 1.29481 5.98488 1.2818 6.40348 1.28089L6.99564 1.27963V1.74531C6.99564 2.17485 7.00132 2.21933 7.06865 2.31826C7.10882 2.37725 7.18286 2.45607 7.23325 2.49342C7.32414 2.56074 7.34296 2.5613 9.55898 2.5613C11.775 2.5613 11.7938 2.56074 11.8847 2.49342C11.9351 2.45607 12.0091 2.37725 12.0493 2.31826C12.1167 2.21927 12.1223 2.17491 12.1223 1.74339V1.27576L12.7528 1.28582C13.4429 1.29679 13.468 1.30347 13.6291 1.51925L13.696 1.60887V8.54783V15.4868L13.6291 15.5764C13.5923 15.6257 13.5219 15.6961 13.4726 15.7329C13.3901 15.7945 13.373 15.7994 10.3663 15.7998ZM11.084 1.5392V1.40941V1.27963H9.55898H8.03396V1.40941V1.5392H9.55898H11.084Z" fill="#999999"/>
</svg>
