<svg width="28" height="28" viewBox="0 0 28 28" fill="none" xmlns="http://www.w3.org/2000/svg">
<rect x="0.5" y="0.5" width="27" height="27" rx="7.5" stroke="white"/>
<path fill-rule="evenodd" clip-rule="evenodd" d="M13.2807 5.04252C12.3851 5.18525 11.5848 5.6154 10.9576 6.29128C10.2695 7.03272 9.91296 7.8889 9.86393 8.91729C9.79545 10.3536 10.4908 11.7267 11.6897 12.5225C12.2793 12.914 12.8481 13.1127 13.537 13.168C14.8138 13.2706 15.9026 12.8637 16.7815 11.9557C17.6401 11.0687 18.0241 9.97428 17.9177 8.71781C17.8265 7.64087 17.3565 6.71155 16.5441 6.00223C15.9024 5.44181 15.3102 5.16503 14.4943 5.04401C14.1023 4.98587 13.6399 4.9853 13.2807 5.04252ZM14.6793 6.08827C15.1916 6.22242 15.5796 6.4501 16.0137 6.87114C16.5754 7.41602 16.8631 8.01264 16.9373 8.7864C17.0253 9.70465 16.7475 10.5421 16.1341 11.2074C15.7549 11.6187 15.1945 11.968 14.716 12.0912C14.0136 12.272 13.1718 12.1939 12.569 11.8918C11.7451 11.4791 11.1369 10.7101 10.9131 9.79834C10.8277 9.45018 10.8371 8.6597 10.9308 8.30222C11.1836 7.33902 12.0119 6.44428 12.9312 6.1416C13.428 5.97802 14.1718 5.95532 14.6793 6.08827ZM10.302 13.2425C9.80083 13.2961 9.28197 13.4874 8.87206 13.7696C7.84857 14.4741 7.18648 16.0497 7.0341 18.1433C6.9485 19.3195 7.01754 19.9008 7.31544 20.5122C7.47999 20.8498 7.79154 21.2214 8.11007 21.4599C8.35008 21.6397 8.75874 21.8274 9.11542 21.9219L9.4106 22H14.0023H18.594L18.8892 21.9221C19.9254 21.6485 20.6488 20.9383 20.9093 19.9387C21.0439 19.422 21.0267 18.1924 20.8711 17.2208C20.5254 15.0609 19.6531 13.7642 18.2734 13.3589C17.9579 13.2662 17.3935 13.1957 17.2262 13.2281C17.0662 13.2591 16.8424 13.3803 16.3374 13.7095C15.7933 14.0641 15.7063 14.1103 15.3009 14.2596C14.8206 14.4365 14.4644 14.505 14.0232 14.505C13.5613 14.5051 13.2081 14.4409 12.7422 14.2725C12.3022 14.1134 12.2832 14.1032 11.5961 13.6608C11.2338 13.4276 10.9657 13.2782 10.8592 13.2502C10.6772 13.2023 10.6772 13.2023 10.302 13.2425ZM11.1548 14.557C11.7734 14.9585 12.0317 15.0879 12.5722 15.2673C13.9814 15.7349 15.4215 15.5093 16.7791 14.6081C17.3935 14.2002 17.3793 14.2063 17.6411 14.2399C18.8316 14.3924 19.5735 15.4067 19.8881 17.3122C20.0176 18.0964 20.0573 19.191 19.9714 19.6062C19.8328 20.2754 19.3867 20.7463 18.7061 20.942C18.5071 20.9993 18.2498 21.0026 14.0023 21.0026C9.74373 21.0026 9.49784 20.9994 9.29581 20.9416C8.80636 20.8016 8.38357 20.4638 8.18619 20.055C8.01558 19.7017 7.97494 19.4062 7.99872 18.6919C8.02273 17.9708 8.05749 17.6356 8.1695 17.0462C8.25681 16.5868 8.45661 15.9352 8.59652 15.6538C9.01929 14.8034 9.59315 14.3382 10.3399 14.2406C10.4601 14.2248 10.5702 14.2101 10.5844 14.2078C10.5986 14.2055 10.8553 14.3626 11.1548 14.557Z" fill="white"/>
</svg>
